<?xml version="1.0" standalone="no"?>
<!DOCTYPE svg PUBLIC "-//W3C//DTD SVG 20010904//EN"
 "http://www.w3.org/TR/2001/REC-SVG-20010904/DTD/svg10.dtd">
<svg version="1.0" xmlns="http://www.w3.org/2000/svg"
 width="512.000000pt" height="512.000000pt" viewBox="0 0 512.000000 512.000000"
 preserveAspectRatio="xMidYMid meet">
<metadata>
Created by potrace 1.14, written by Peter Selinger 2001-2017
</metadata>
<g transform="translate(0.000000,512.000000) scale(0.100000,-0.100000)"
fill="#000000" stroke="none">
<path d="M2220 4937 c-3 -3 -36 -7 -75 -10 -237 -20 -526 -120 -750 -260 -465
-290 -783 -780 -856 -1317 -22 -163 -11 -415 25 -586 60 -285 222 -612 415
-834 305 -352 692 -563 1146 -626 165 -23 459 -4 650 42 79 19 245 73 260 84
18 14 364 66 580 87 104 10 504 10 575 0 171 -25 299 -94 336 -182 20 -49 17
-84 -12 -143 -47 -95 -160 -160 -309 -177 -52 -6 -385 -6 -465 -1 -25 2 -97 7
-160 11 -63 4 -131 8 -150 10 -19 2 -71 6 -115 9 -73 6 -140 12 -235 21 -48 5
-142 14 -220 20 -99 8 -343 33 -395 40 -29 4 -78 10 -173 20 -26 3 -63 8 -82
10 -19 3 -62 7 -95 10 -33 3 -78 8 -100 10 -220 25 -474 34 -613 20 -110 -10
-238 -66 -319 -139 -87 -78 -135 -179 -134 -282 0 -72 21 -130 69 -197 75
-104 277 -200 507 -240 50 -9 106 -19 125 -22 59 -11 499 -14 590 -5 169 18
235 27 385 55 170 31 366 89 388 116 25 31 22 75 -9 105 -28 29 -46 29 -144 0
-65 -19 -250 -62 -300 -70 -19 -3 -57 -10 -85 -15 -27 -5 -79 -12 -115 -16
-36 -3 -101 -10 -145 -15 -80 -8 -512 -6 -550 3 -11 2 -42 8 -70 11 -165 24
-345 92 -414 157 -39 38 -70 101 -71 144 0 45 57 134 114 176 80 61 176 83
351 83 82 -1 267 -12 306 -19 9 -2 52 -6 95 -10 43 -4 86 -9 94 -10 8 -2 49
-6 90 -9 41 -4 91 -9 110 -11 19 -2 60 -7 90 -10 30 -3 71 -8 90 -10 66 -8
348 -36 505 -50 39 -3 84 -8 100 -10 17 -2 66 -7 110 -10 44 -4 96 -8 115 -10
19 -2 78 -7 130 -10 52 -4 111 -9 130 -10 232 -23 625 -24 741 -1 172 34 324
138 386 263 24 51 28 70 28 148 0 78 -4 97 -27 140 -80 151 -245 234 -538 270
-48 6 -348 6 -415 1 -22 -2 -78 -7 -125 -10 -47 -4 -98 -9 -115 -12 -35 -7
-36 -8 60 72 345 287 574 715 623 1164 9 86 9 349 -1 428 -25 209 -83 404
-177 597 -183 377 -473 662 -854 840 -129 61 -303 119 -411 138 -49 9 -103 19
-120 22 -36 8 -369 18 -375 12z m-51 -171 c-2 -2 -40 -22 -84 -46 -154 -82
-361 -241 -466 -357 -62 -68 -162 -200 -205 -271 -26 -42 -49 -79 -51 -81 -10
-14 -243 194 -243 216 0 11 114 122 185 180 192 159 462 286 715 337 99 20
157 29 149 22z m641 -70 c0 -2 -20 -16 -45 -30 -134 -79 -335 -257 -448 -396
-115 -142 -216 -315 -282 -485 -15 -38 -28 -71 -29 -72 -3 -4 -186 46 -201 55
-33 18 160 330 291 471 178 191 373 325 614 422 103 42 100 41 100 35z m-526
-82 c-117 -83 -160 -120 -254 -214 -139 -139 -254 -298 -340 -470 -23 -47 -44
-87 -46 -89 -5 -5 -102 45 -133 68 l-22 17 66 99 c137 204 295 361 494 490 67
43 284 154 305 155 4 0 -27 -25 -70 -56z m845 -30 c161 -87 304 -195 418 -314
l43 -45 -81 -78 c-204 -198 -444 -336 -716 -411 -198 -54 -348 -69 -576 -55
-39 2 -47 5 -41 18 3 9 11 29 17 45 22 63 92 195 144 276 159 243 359 425 623
568 41 23 77 41 79 42 2 0 43 -21 90 -46z m-1933 -656 c22 -18 51 -40 64 -49
l24 -16 -39 -104 c-21 -57 -40 -105 -41 -107 -11 -16 -264 299 -264 328 0 8
16 39 36 68 l37 53 71 -70 c39 -38 89 -85 112 -103z m2533 113 l40 -59 -50
-73 c-239 -348 -615 -600 -1019 -683 -41 -9 -88 -19 -105 -22 -54 -11 -388
-12 -457 -1 l-68 10 6 51 c8 80 25 187 36 230 l9 38 67 -6 c74 -8 283 -8 322
-2 14 3 52 7 85 11 160 17 380 83 549 165 179 86 397 243 505 362 19 21 36 38
37 38 2 0 21 -26 43 -59z m-2819 -306 c34 -44 105 -122 157 -174 61 -61 92
-99 89 -110 -3 -9 -8 -38 -12 -66 -4 -27 -9 -54 -9 -60 -1 -5 -3 -28 -4 -50
l-2 -40 -40 45 c-68 75 -172 231 -228 342 l-54 106 18 46 c10 26 19 45 20 44
2 -2 31 -39 65 -83z m2928 -103 c-238 -477 -670 -802 -1199 -902 -155 -30
-492 -32 -520 -3 -4 4 -10 22 -13 38 -3 17 -8 41 -10 55 -8 41 -15 91 -21 163
l-6 67 63 -7 c123 -15 450 -7 518 12 8 2 26 6 40 9 248 45 506 156 732 316 95
67 275 238 344 325 21 28 41 52 44 55 3 3 14 18 24 35 l19 29 19 -44 19 -44
-53 -104z m-2337 93 c49 -26 83 -50 80 -57 -1 -7 -14 -60 -28 -118 -14 -58
-29 -113 -32 -123 -5 -15 -17 -10 -89 38 -46 31 -85 62 -88 69 -4 11 63 236
71 236 1 0 40 -20 86 -45z m407 -155 c10 0 25 -6 34 -12 15 -12 15 -20 3 -83
-13 -61 -24 -136 -30 -199 -3 -30 -16 -30 -107 2 -144 51 -136 45 -126 110 11
72 33 169 47 204 l10 26 76 -24 c42 -13 84 -24 93 -24z m-1062 -232 c75 -108
132 -178 215 -260 67 -67 67 -67 73 -135 8 -87 19 -158 32 -208 l7 -30 -30 30
c-99 98 -231 292 -300 441 -73 160 -144 419 -78 289 13 -24 49 -82 81 -127z
m3119 140 c-12 -62 -73 -225 -120 -323 -215 -446 -610 -769 -1090 -890 -55
-14 -120 -28 -145 -31 -25 -2 -52 -7 -60 -9 -8 -2 -60 -7 -115 -10 l-100 -6
-48 84 c-36 64 -117 237 -117 250 0 1 71 1 158 0 158 -1 307 14 427 43 33 8
70 17 82 20 154 32 483 196 623 310 142 115 238 211 327 324 61 79 163 234
163 249 0 6 4 11 9 11 6 0 8 -10 6 -22z m-2497 -222 l30 -16 0 -134 c0 -74 3
-139 6 -145 4 -5 2 -12 -4 -16 -6 -3 -45 19 -88 49 -140 100 -127 82 -124 188
1 51 4 102 6 113 3 11 5 30 5 42 1 22 5 21 69 -21 38 -24 83 -51 100 -60z
m417 -166 c8 0 15 -3 16 -7 0 -5 2 -17 4 -28 2 -11 6 -58 9 -105 4 -47 11
-105 16 -130 15 -71 16 -70 -42 -54 -102 27 -201 71 -210 93 -4 12 -10 67 -14
123 -7 118 -7 104 -5 144 l1 32 105 -34 c57 -19 111 -34 120 -34z m-1055 -215
c99 -147 317 -383 400 -432 20 -11 43 -46 73 -108 168 -345 440 -633 765 -811
56 -31 102 -57 102 -59 0 -10 -246 44 -343 76 -515 169 -920 591 -1072 1114
-14 49 -28 102 -31 119 -19 107 -25 152 -30 246 l-5 105 54 -100 c29 -55 69
-122 87 -150z m3177 143 c-10 -140 -17 -183 -49 -308 -64 -251 -180 -479 -337
-660 -31 -36 -60 -71 -66 -78 -5 -7 -50 -49 -99 -93 -102 -91 -212 -167 -334
-229 l-83 -43 -67 34 c-81 40 -236 144 -312 208 -61 51 -211 203 -206 208 2 2
32 5 67 8 35 3 75 7 89 10 14 2 41 7 60 10 262 41 586 186 813 365 90 71 247
232 318 327 70 92 165 245 189 303 7 16 15 30 18 30 3 0 2 -42 -1 -92z m-2522
-258 c23 0 63 -44 69 -75 10 -52 71 -236 91 -274 9 -18 14 -35 11 -38 -6 -6
-143 66 -208 110 -54 37 -65 60 -108 232 -43 168 -45 164 54 100 46 -30 87
-55 91 -55z m464 -175 c35 -6 37 -9 70 -98 18 -51 51 -128 72 -171 21 -44 36
-82 33 -85 -7 -7 -226 39 -241 50 -18 15 -98 187 -132 282 l-30 84 96 -28 c53
-15 113 -31 132 -34z m-274 -399 c70 -29 115 -54 125 -68 81 -126 250 -315
359 -401 36 -28 73 -58 81 -66 8 -7 36 -27 63 -44 26 -16 46 -31 44 -34 -8 -7
-177 75 -257 124 -177 110 -341 257 -457 409 -83 109 -102 140 -83 132 8 -4
65 -27 125 -52z m436 -120 c30 -4 74 -8 98 -10 27 -3 48 -10 53 -20 29 -52
176 -211 273 -296 63 -55 202 -157 251 -184 l29 -16 -30 7 c-63 14 -223 88
-344 159 -86 50 -207 149 -308 250 -95 94 -124 134 -90 121 8 -3 38 -8 68 -11z"/>
</g>
</svg>
